<svg width="100" height="162" viewBox="0 0 100 162" fill="none" xmlns="http://www.w3.org/2000/svg">
<path d="M14.2 34.456H54.264C55.6293 34.456 56.7387 34.9253 57.592 35.864C58.4453 36.8027 58.872 38.04 58.872 39.576V127H45.432C42.5307 127 40.6107 126.531 39.672 125.592C38.8187 124.653 38.392 122.691 38.392 119.704V50.456H17.912C15.4373 50.456 14.2 48.408 14.2 44.312V34.456ZM63.992 34.456H84.472C86.9467 34.456 88.184 36.504 88.184 40.6V50.456H63.992V34.456Z" fill="#7ED957"/>
<path d="M85.8 127.544H45.736C44.3707 127.544 43.2613 127.075 42.408 126.136C41.5547 125.197 41.128 123.96 41.128 122.424V35H54.568C57.4693 35 59.3893 35.4693 60.328 36.408C61.1813 37.3467 61.608 39.3093 61.608 42.296V111.544H82.088C84.5627 111.544 85.8 113.592 85.8 117.688V127.544ZM36.008 127.544H15.528C13.0533 127.544 11.816 125.496 11.816 121.4V111.544H36.008V127.544Z" fill="#7ED957"/>
</svg>
