<svg width="113" height="197" viewBox="0 0 113 197" fill="none" xmlns="http://www.w3.org/2000/svg">
<path d="M35.08 50.88C28.4667 50.88 23.4533 52.5867 20.04 56C16.7333 59.4133 14.3333 65.2267 12.84 73.44C12.84 73.6533 12.52 73.76 11.88 73.76C11.3467 73.76 11.08 73.6533 11.08 73.44C11.5067 69.6 11.9867 64.5867 12.52 58.4C13.0533 52.2133 13.32 47.5733 13.32 44.48C13.32 43.9467 13.5867 43.68 14.12 43.68C14.76 43.68 15.08 43.9467 15.08 44.48C15.08 46.8267 17.96 48 23.72 48C32.8933 48.32 43.6133 48.48 55.88 48.48C62.1733 48.48 68.84 48.3733 75.88 48.16L86.76 48C90.6 48 93.4267 47.7333 95.24 47.2C97.16 46.6667 98.3867 45.6 98.92 44C99.0267 43.5733 99.3467 43.36 99.88 43.36C100.413 43.36 100.68 43.5733 100.68 44C100.36 47.0933 100.04 51.7867 99.72 58.08C99.4 64.3733 99.24 69.4933 99.24 73.44C99.24 73.6533 98.92 73.76 98.28 73.76C97.64 73.76 97.32 73.6533 97.32 73.44C97 65.12 95.2933 59.3067 92.2 56C89.1067 52.5867 83.9867 50.88 76.84 50.88C72.04 50.88 68.6267 51.0933 66.6 51.52C64.5733 51.9467 63.1867 52.8533 62.44 54.24C61.6933 55.6267 61.32 57.9733 61.32 61.28V135.04C61.32 138.347 61.6933 140.747 62.44 142.24C63.1867 143.733 64.6267 144.747 66.76 145.28C68.8933 145.813 72.2533 146.08 76.84 146.08C77.16 146.08 77.32 146.4 77.32 147.04C77.32 147.68 77.16 148 76.84 148C73.32 148 70.4933 147.947 68.36 147.84L55.88 147.68L43.88 147.84C41.7467 147.947 38.8133 148 35.08 148C34.8667 148 34.76 147.68 34.76 147.04C34.76 146.4 34.8667 146.08 35.08 146.08C39.6667 146.08 43.0267 145.813 45.16 145.28C47.2933 144.747 48.7333 143.733 49.48 142.24C50.3333 140.64 50.76 138.24 50.76 135.04V60.96C50.76 57.6533 50.3867 55.36 49.64 54.08C48.8933 52.6933 47.5067 51.84 45.48 51.52C43.4533 51.0933 39.9867 50.88 35.08 50.88Z" fill="#73D957"/>
<path d="M77.92 146.12C84.5333 146.12 89.5467 144.413 92.96 141C96.2667 137.587 98.6667 131.773 100.16 123.56C100.16 123.347 100.48 123.24 101.12 123.24C101.653 123.24 101.92 123.347 101.92 123.56C101.493 127.4 101.013 132.413 100.48 138.6C99.9467 144.787 99.68 149.427 99.68 152.52C99.68 153.053 99.4133 153.32 98.88 153.32C98.24 153.32 97.92 153.053 97.92 152.52C97.92 150.173 95.04 149 89.28 149C80.1067 148.68 69.3867 148.52 57.12 148.52C50.8267 148.52 44.16 148.627 37.12 148.84L26.24 149C22.4 149 19.5733 149.267 17.76 149.8C15.84 150.333 14.6133 151.4 14.08 153C13.9733 153.427 13.6533 153.64 13.12 153.64C12.5867 153.64 12.32 153.427 12.32 153C12.64 149.907 12.96 145.213 13.28 138.92C13.6 132.627 13.76 127.507 13.76 123.56C13.76 123.347 14.08 123.24 14.72 123.24C15.36 123.24 15.68 123.347 15.68 123.56C16 131.88 17.7067 137.693 20.8 141C23.8933 144.413 29.0133 146.12 36.16 146.12C40.96 146.12 44.3733 145.907 46.4 145.48C48.4267 145.053 49.8133 144.147 50.56 142.76C51.3067 141.373 51.68 139.027 51.68 135.72V61.96C51.68 58.6533 51.3067 56.2533 50.56 54.76C49.8133 53.2667 48.3733 52.2533 46.24 51.72C44.1067 51.1867 40.7467 50.92 36.16 50.92C35.84 50.92 35.68 50.6 35.68 49.96C35.68 49.32 35.84 49 36.16 49C39.68 49 42.5067 49.0533 44.64 49.16L57.12 49.32L69.12 49.16C71.2533 49.0533 74.1867 49 77.92 49C78.1333 49 78.24 49.32 78.24 49.96C78.24 50.6 78.1333 50.92 77.92 50.92C73.3333 50.92 69.9733 51.1867 67.84 51.72C65.7067 52.2533 64.2667 53.2667 63.52 54.76C62.6667 56.36 62.24 58.76 62.24 61.96V136.04C62.24 139.347 62.6133 141.64 63.36 142.92C64.1067 144.307 65.4933 145.16 67.52 145.48C69.5467 145.907 73.0133 146.12 77.92 146.12Z" fill="#7ED957"/>
</svg>
